<?xml version="1.0" encoding="utf-8"?>
<!-- Generator: Adobe Illustrator 21.1.0, SVG Export Plug-In . SVG Version: 6.00 Build 0)  -->
<svg version="1.1" id="Слой_1" xmlns="http://www.w3.org/2000/svg" xmlns:xlink="http://www.w3.org/1999/xlink" x="0px" y="0px"
	 viewBox="0 0 268.4 167.2" style="enable-background:new 0 0 268.4 167.2;" xml:space="preserve">
<style type="text/css">
	.st0{fill:#537DAC;}
	.st1{fill:#EF8024;}
	.st2{fill:#E95729;}
	.st3{opacity:0.3;fill:url(#SVGID_1_);}
	.st4{fill:#868686;}
</style>
<title>лого</title>
<g>
	<g id="Слой_1_1_">
		<path class="st0" d="M19.5,134.5H8.3v7h13.2v5.5H1.2v-29.5h20.3v5.5H8.3v6.2h11.2V134.5z"/>
		<path class="st0" d="M37.4,136.9H25.2v-5.3h12.2V136.9z"/>
		<path class="st0" d="M67.8,147h-7.1v-24H50.1v24H43v-29.5h24.8L67.8,147z"/>
		<path class="st0" d="M88.9,141.5h-9.7l-1.7,5.5h-7.6l10.8-29.5h6.7L98.3,147h-7.6L88.9,141.5z M80.9,136h6.3l-3.2-10.3L80.9,136z"
			/>
		<path class="st0" d="M120.4,123h-12.8v4.7h3.7c2.1,0,4.2,0.4,6.2,1.2c1.7,0.7,3.1,1.9,4.1,3.4c2.5,3.9,1.7,9-1.8,12.1
			c-2.2,1.8-5,2.7-8.7,2.7h-10.7v-29.5h19.9V123z M107.6,133.1v8.4h3.6c1.3,0.1,2.5-0.4,3.4-1.2c0.8-0.8,1.3-2,1.3-3.1
			c0-1.1-0.4-2.2-1.2-2.9c-1-0.8-2.2-1.2-3.5-1.1L107.6,133.1z"/>
		<path class="st0" d="M151.1,117.5V147H144v-24h-6.6l-0.5,9.9c-0.1,2.8-0.6,5.5-1.4,8.2c-0.6,1.8-1.7,3.3-3.2,4.5
			c-1.7,1-3.6,1.5-5.6,1.4h-1.9v-5.5l1-0.1c1.4-0.2,2.6-1.2,3.1-2.6c0.8-2.5,1.2-5.1,1.2-7.7l0.5-13.6L151.1,117.5z"/>
		<path class="st0" d="M172.9,117.5h7.1V147h-7.1v-18.6L162.3,147h-7.2v-29.5h7.1v18.6L172.9,117.5z"/>
		<path class="st0" d="M191.2,117.5v24h7.3v-24h7.1v24h7.2v-24h7.1V147h-35.9v-29.5H191.2z"/>
		<path class="st0" d="M0,102.6V44.7h20.8c7.4,0,13.1,1.4,17,4.1c3.9,2.7,5.8,6.7,5.8,11.9c0.1,2.7-0.6,5.4-2.1,7.7
			c-1.5,2.2-3.6,3.8-6.1,4.7c2.8,0.6,5.3,2.2,7,4.4c1.7,2.3,2.5,5.1,2.4,7.9c0,5.7-1.8,9.9-5.4,12.8c-3.6,2.8-8.9,4.3-16,4.3
			L0,102.6z M13.9,68.8h7.3c3,0,5.2-0.6,6.5-1.7c1.4-1.2,2.1-3,2-4.8c0-2.4-0.7-4.2-2.1-5.3s-3.7-1.6-6.8-1.6h-6.8V68.8z M13.9,78
			v13.9h9.2c2.1,0.1,4.1-0.5,5.8-1.7c1.4-1.2,2.1-3,2-4.9c0-4.8-2.4-7.2-7.2-7.3H13.9z"/>
		<path class="st0" d="M72.9,79.7h-6.6v22.9H52.4V44.7h13.9v22.4h5.4l11.1-22.4h16.9L83.8,71.4l17.9,31.2H85.2L72.9,79.7z"/>
		<path class="st0" d="M150.7,83c-0.1,3.8-1.2,7.5-3.3,10.7c-2,3.1-5,5.6-8.4,7.2c-3.9,1.8-8.1,2.6-12.3,2.5c-7.6,0-13.6-2.5-18-7.4
			s-6.6-12-6.6-21v-2.8c-0.1-5.1,0.9-10.2,3-14.9c1.8-4.1,4.8-7.5,8.5-9.8c3.9-2.4,8.3-3.6,12.9-3.5c7,0,12.7,1.8,16.9,5.5
			s6.7,8.8,7.3,15.3h-13.9c-0.1-3.5-1-6-2.7-7.6s-4.2-2.3-7.6-2.3c-3.5,0-6,1.3-7.6,3.9s-2.5,6.7-2.5,12.4v4.1
			c0,6.2,0.8,10.6,2.3,13.2c1.5,2.6,4.2,4,8,4c3.2,0,5.7-0.8,7.4-2.3c1.7-1.5,2.6-3.9,2.7-7.2L150.7,83z"/>
		<path class="st1" d="M206.7,105.2c-25.9,0-46.9-21-46.9-46.9c0-25.9,21-46.9,46.9-46.9c25.9,0,46.9,21,46.9,46.9v0
			C253.6,84.2,232.6,105.2,206.7,105.2z M206.7,26.3c-17.7,0-32,14.3-32,32s14.3,32,32,32s32-14.3,32-32
			C238.7,40.7,224.4,26.4,206.7,26.3z"/>
		<path class="st2" d="M206.7,37.8c-1.6,0-3.2,0.2-4.8,0.6c6.1,1.4,9.9,7.4,8.5,13.5s-7.4,9.9-13.5,8.5c-5-1.1-8.6-5.5-8.7-10.6
			c-4.7,10.3-0.2,22.5,10.1,27.2s22.5,0.2,27.2-10.1c4.7-10.3,0.2-22.5-10.1-27.2C212.6,38.4,209.7,37.8,206.7,37.8L206.7,37.8z"/>
		<circle class="st2" cx="235" cy="7.7" r="7.7"/>
		<circle class="st2" cx="252.9" cy="19" r="7.7"/>
		<circle class="st2" cx="260.6" cy="38.2" r="7.7"/>
		
			<linearGradient id="SVGID_1_" gradientUnits="userSpaceOnUse" x1="220.6066" y1="68.32" x2="220.6066" y2="125.06" gradientTransform="matrix(1 0 0 -1 -13.89 153.53)">
			<stop  offset="0" style="stop-color:#FFFFFF"/>
			<stop  offset="1" style="stop-color:#E95729"/>
		</linearGradient>
		<path class="st3" d="M203.7,63.3c-7.1,2.5-13.1-0.4-17.5-4.3c0.3,11.3,9.7,20.3,21.1,20s20.3-9.7,20-21.1c0-1.4-0.2-2.9-0.6-4.3
			C220.6,55.5,213.1,60,203.7,63.3z"/>
		<path class="st4" d="M1.6,164.5v-9.5h2.8c0.8,0,1.6,0.2,2.3,0.6c0.6,0.4,0.9,1.1,0.8,1.9c0,0.4-0.1,0.9-0.4,1.2
			c-0.3,0.4-0.7,0.6-1.1,0.8c0.6,0.1,1.1,0.3,1.5,0.8c0.4,0.4,0.6,1,0.6,1.6c0,0.7-0.3,1.5-0.8,1.9c-0.6,0.5-1.4,0.7-2.2,0.7
			L1.6,164.5z M2.3,159.3h2.3c0.5,0,1.1-0.1,1.5-0.5c0.4-0.3,0.6-0.8,0.5-1.3c0-0.5-0.2-1-0.6-1.4c-0.5-0.3-1.1-0.5-1.8-0.4h-2
			L2.3,159.3z M2.3,160v3.9H5c0.6,0,1.2-0.2,1.6-0.5c0.4-0.4,0.6-0.9,0.6-1.4c0-0.5-0.2-1-0.6-1.4c-0.4-0.4-1-0.6-1.6-0.6L2.3,160
			L2.3,160z"/>
		<path class="st4" d="M14.2,157.5h0.8v7h-0.8v-5.7l0,0l-3.8,5.7H9.6v-7h0.8v5.7l0,0L14.2,157.5z"/>
		<path class="st4" d="M17,163.9c0.3,0,0.6-0.3,0.8-1c0.2-0.9,0.4-1.9,0.4-2.9l0.1-2.5h4.2v6.4h0.7v2.9h-0.8v-2.3h-5.3v2.3h-0.7
			v-2.9L17,163.9z M19,160.1c0,0.8-0.1,1.6-0.3,2.3c-0.1,0.5-0.3,1-0.5,1.5h3.6v-5.6h-2.7L19,160.1z"/>
		<path class="st4" d="M27.5,164.7c-0.9,0-1.7-0.3-2.2-1c-0.6-0.7-0.9-1.6-0.8-2.5v-0.4c0-0.9,0.3-1.8,0.9-2.5c0.5-0.6,1.3-1,2.1-1
			c0.8-0.1,1.5,0.3,2,0.8c0.5,0.6,0.7,1.4,0.7,2.2v0.6h-4.9v0.2c0,0.7,0.2,1.4,0.6,2c0.4,0.5,1,0.8,1.7,0.8c0.4,0,0.8-0.1,1.2-0.2
			c0.3-0.1,0.6-0.3,0.9-0.6l0.3,0.5c-0.3,0.3-0.6,0.5-1,0.6C28.4,164.5,27.9,164.7,27.5,164.7z M27.4,158c-0.6,0-1.1,0.2-1.5,0.6
			c-0.4,0.5-0.6,1-0.7,1.6l0,0h4v-0.2c0-0.6-0.2-1.1-0.5-1.5C28.4,158.2,27.9,158,27.4,158z"/>
		<path class="st4" d="M31.2,160.9c0-0.9,0.3-1.8,0.8-2.6c1.1-1.2,3.1-1.3,4.3-0.2c0.1,0.1,0.1,0.1,0.2,0.2c0.6,0.7,0.9,1.6,0.8,2.6
			v0.2c0,0.9-0.3,1.8-0.8,2.6c-1.1,1.2-3.1,1.3-4.3,0.2c-0.1-0.1-0.1-0.1-0.2-0.2c-0.6-0.7-0.9-1.6-0.8-2.6V160.9z M32,161.1
			c0,0.7,0.2,1.5,0.6,2.1c0.7,0.9,2.1,1.1,3.1,0.4c0.1-0.1,0.3-0.2,0.4-0.4c0.4-0.6,0.6-1.3,0.6-2.1v-0.2c0-0.7-0.2-1.4-0.6-2
			c-0.7-0.9-2.1-1.1-3-0.4c-0.1,0.1-0.3,0.2-0.4,0.4c-0.4,0.6-0.6,1.3-0.6,2L32,161.1z"/>
		<path class="st4" d="M42.7,160.8h-3.8v-0.7h3.8V160.8z"/>
		<path class="st4" d="M46.3,161.3h-0.9v3.2h-0.8v-7h0.8v3.1h0.9l2.8-3.1H50l0,0l-3,3.4l3.3,3.6l0,0h-1L46.3,161.3z"/>
		<path class="st4" d="M51.1,160.9c0-0.9,0.3-1.8,0.8-2.6c1.1-1.2,3.1-1.3,4.3-0.2c0.1,0.1,0.1,0.1,0.2,0.2c0.6,0.7,0.9,1.6,0.8,2.6
			v0.2c0,0.9-0.3,1.8-0.8,2.6c-1.1,1.2-3.1,1.3-4.3,0.2c-0.1-0.1-0.1-0.1-0.2-0.2c-0.6-0.7-0.9-1.6-0.8-2.6V160.9z M51.9,161.1
			c0,0.7,0.2,1.5,0.6,2.1c0.7,0.9,2.1,1.1,3.1,0.4c0.1-0.1,0.3-0.2,0.4-0.4c0.4-0.6,0.6-1.3,0.6-2.1v-0.2c0-0.7-0.2-1.4-0.6-2
			c-0.7-0.9-2.1-1.1-3-0.4c-0.1,0.1-0.3,0.2-0.4,0.4c-0.4,0.6-0.6,1.3-0.6,2L51.9,161.1z"/>
		<path class="st4" d="M64.3,164.5h-0.8v-3.2h-3.8v3.2h-0.8v-7h0.8v3.1h3.8v-3.1h0.8V164.5z"/>
		<path class="st4" d="M66,161.1c0-0.9,0.2-1.9,0.7-2.7c0.4-0.7,1.2-1,2-1c0.4,0,0.8,0.1,1.2,0.3c0.4,0.2,0.7,0.5,0.9,0.8v-4h0.8
			v4.1c0.2-0.3,0.5-0.6,0.9-0.8c0.4-0.2,0.8-0.3,1.3-0.3c0.8,0,1.6,0.3,2,1c0.5,0.8,0.8,1.7,0.7,2.7v0.1c0,0.9-0.2,1.8-0.7,2.5
			c-0.5,0.6-1.2,1-2,0.9c-0.4,0-0.9-0.1-1.3-0.3c-0.4-0.2-0.7-0.4-0.9-0.8v3.6h-0.8v-3.6c-0.2,0.3-0.6,0.6-0.9,0.7
			c-0.4,0.2-0.8,0.3-1.2,0.2c-0.8,0-1.5-0.3-2-0.9c-0.5-0.7-0.8-1.6-0.7-2.5L66,161.1z M66.8,161.2c0,0.7,0.1,1.4,0.5,2
			c0.3,0.5,0.9,0.8,1.5,0.8c0.4,0,0.9-0.1,1.2-0.3c0.3-0.2,0.6-0.5,0.8-0.9v-3.4c-0.2-0.4-0.4-0.7-0.8-0.9c-0.4-0.3-0.8-0.4-1.2-0.4
			c-0.6,0-1.2,0.3-1.5,0.9c-0.4,0.7-0.6,1.4-0.5,2.2L66.8,161.2z M75.7,161.1c0-0.8-0.2-1.5-0.5-2.2c-0.3-0.5-0.9-0.9-1.6-0.9
			c-0.4,0-0.9,0.1-1.3,0.4c-0.3,0.3-0.6,0.6-0.7,1v3.4c0.2,0.4,0.4,0.7,0.8,0.9c0.4,0.2,0.8,0.3,1.2,0.3c0.6,0,1.2-0.3,1.6-0.8
			c0.4-0.6,0.6-1.3,0.5-2L75.7,161.1z"/>
		<path class="st4" d="M80.9,164.7c-0.9,0-1.7-0.3-2.2-1c-0.6-0.7-0.9-1.6-0.8-2.5v-0.4c0-0.9,0.3-1.8,0.9-2.5c0.5-0.6,1.3-1,2.1-1
			c0.8-0.1,1.5,0.3,2,0.8c0.5,0.6,0.7,1.4,0.7,2.2v0.6h-4.9v0.2c0,0.7,0.2,1.4,0.6,2c0.4,0.5,1,0.8,1.7,0.8c0.4,0,0.8-0.1,1.2-0.2
			c0.3-0.1,0.6-0.3,0.9-0.6l0.3,0.5c-0.3,0.3-0.6,0.5-1,0.6C81.9,164.6,81.4,164.7,80.9,164.7z M80.8,158c-0.6,0-1.1,0.2-1.5,0.6
			c-0.4,0.5-0.6,1-0.7,1.6l0,0h4v-0.2c0-0.6-0.2-1.1-0.5-1.5C81.9,158.2,81.4,158,80.8,158z"/>
		<path class="st4" d="M90.8,161.2c0,0.9-0.2,1.8-0.7,2.5c-0.5,0.6-1.2,1-2,0.9c-0.4,0-0.9-0.1-1.3-0.3c-0.4-0.2-0.7-0.5-0.9-0.8
			v3.6h-0.7v-9.7h0.6l0.1,1.1c0.2-0.4,0.5-0.7,0.9-0.9c0.4-0.2,0.9-0.3,1.3-0.3c0.8,0,1.6,0.3,2,1c0.5,0.8,0.8,1.7,0.7,2.7
			L90.8,161.2z M90,161.1c0-0.8-0.1-1.5-0.5-2.2c-0.3-0.5-0.9-0.9-1.6-0.8c-0.4,0-0.9,0.1-1.3,0.4c-0.3,0.3-0.6,0.6-0.7,1v3.4
			c0.2,0.4,0.4,0.7,0.8,0.9c0.4,0.2,0.8,0.3,1.2,0.3c0.6,0,1.2-0.3,1.6-0.8c0.4-0.6,0.6-1.3,0.5-2L90,161.1z"/>
		<path class="st4" d="M95.2,164.7c-0.9,0-1.7-0.3-2.2-1c-0.6-0.7-0.9-1.6-0.8-2.5v-0.4c0-0.9,0.3-1.8,0.9-2.5c0.5-0.6,1.3-1,2.1-1
			c0.8-0.1,1.5,0.3,2,0.8c0.5,0.6,0.7,1.4,0.7,2.2v0.6h-4.9v0.2c0,0.7,0.2,1.4,0.6,2c0.4,0.5,1,0.8,1.7,0.8c0.4,0,0.8-0.1,1.2-0.2
			c0.3-0.1,0.6-0.3,0.9-0.6l0.3,0.5c-0.3,0.3-0.6,0.5-1,0.6C96.1,164.6,95.7,164.7,95.2,164.7z M95.1,158c-0.6,0-1.1,0.2-1.5,0.6
			c-0.4,0.5-0.6,1-0.7,1.6l0,0h4v-0.2c0-0.6-0.2-1.1-0.5-1.5C96.1,158.2,95.6,158,95.1,158L95.1,158z"/>
		<path class="st4" d="M104.7,164.5h-0.8v-3.2h-3.8v3.2h-0.8v-7h0.8v3.1h3.8v-3.1h0.8L104.7,164.5z"/>
		<path class="st4" d="M106.8,157.5h0.8v6.4h3.8v-6.4h0.8v6.4h0.6v2.9h-0.8v-2.3h-5.2L106.8,157.5z"/>
		<path class="st4" d="M118,160.8h-3.9v-0.7h3.8L118,160.8z"/>
		<path class="st4" d="M122.5,164c0.5,0,0.9-0.1,1.3-0.4c0.4-0.3,0.6-0.8,0.6-1.2h0.7l0,0c0,0.6-0.3,1.2-0.8,1.6
			c-0.5,0.4-1.2,0.7-1.8,0.7c-0.8,0-1.7-0.3-2.2-1c-0.5-0.7-0.8-1.6-0.8-2.5v-0.3c0-0.9,0.2-1.8,0.8-2.5c0.5-0.7,1.3-1,2.2-1
			c0.7,0,1.4,0.2,1.9,0.7c0.5,0.5,0.8,1.1,0.7,1.8l0,0h-0.7c0-0.5-0.2-1-0.6-1.4c-0.4-0.3-0.9-0.5-1.4-0.5c-0.7,0-1.3,0.3-1.6,0.8
			c-0.4,0.6-0.6,1.3-0.5,2v0.3c0,0.7,0.2,1.4,0.5,2C121.1,163.6,121.8,164,122.5,164z"/>
		<path class="st4" d="M126.8,164.5v-7h2.6c0.7,0,1.4,0.1,2,0.5c0.5,0.3,0.8,0.8,0.7,1.4c0,0.3-0.1,0.7-0.3,0.9
			c-0.2,0.3-0.6,0.5-0.9,0.6c0.4,0.1,0.8,0.3,1.1,0.6c0.3,0.3,0.4,0.7,0.4,1.1c0,0.6-0.2,1.1-0.7,1.4c-0.6,0.4-1.2,0.5-1.9,0.5
			L126.8,164.5z M127.6,160.6h1.9c0.5,0,1-0.1,1.4-0.3c0.3-0.2,0.5-0.6,0.5-0.9c0-0.4-0.2-0.7-0.5-0.9c-0.5-0.2-1-0.3-1.5-0.3h-1.8
			L127.6,160.6z M127.6,161.3v2.6h2.2c0.5,0,0.9-0.1,1.4-0.3c0.3-0.2,0.5-0.6,0.5-1c0-0.4-0.2-0.7-0.5-0.9c-0.4-0.2-0.9-0.4-1.3-0.3
			L127.6,161.3z"/>
		<path class="st4" d="M139.4,157.5v7h-0.8v-2.8h-2.2l-1.7,2.8h-0.9l1.8-2.9c-0.4-0.1-0.8-0.4-1.1-0.7c-0.3-0.4-0.4-0.8-0.4-1.3
			c0-0.6,0.2-1.1,0.7-1.5c0.5-0.4,1.2-0.6,1.9-0.6L139.4,157.5z M134.9,159.6c0,0.4,0.1,0.7,0.4,1c0.3,0.3,0.7,0.4,1.1,0.4h2.2v-2.9
			h-2c-0.5,0-0.9,0.1-1.3,0.4C135,158.9,134.9,159.2,134.9,159.6L134.9,159.6z"/>
		<path class="st4" d="M144.1,160.6c0.5,0,1-0.1,1.5-0.3c0.3-0.2,0.5-0.6,0.5-0.9c0-0.4-0.2-0.7-0.5-0.9c-0.4-0.3-1-0.4-1.5-0.4
			c-0.5,0-1,0.1-1.4,0.4c-0.4,0.2-0.6,0.6-0.6,1h-0.7l0,0c0-0.6,0.3-1.1,0.8-1.4c1.2-0.7,2.8-0.7,4,0c0.5,0.3,0.8,0.9,0.7,1.5
			c0,0.3-0.1,0.7-0.4,0.9c-0.3,0.3-0.6,0.5-1,0.6c0.4,0.1,0.8,0.3,1.1,0.6c0.3,0.3,0.4,0.7,0.4,1.1c0,0.6-0.3,1.2-0.8,1.5
			c-0.6,0.4-1.3,0.6-2.1,0.5c-0.7,0-1.4-0.2-2-0.5c-0.5-0.3-0.9-0.9-0.8-1.6l0,0h0.7c0,0.4,0.2,0.8,0.6,1.1c0.5,0.3,1,0.4,1.6,0.4
			c0.5,0,1.1-0.1,1.5-0.4c0.3-0.2,0.6-0.6,0.6-1c0-0.4-0.2-0.8-0.5-1c-0.5-0.2-1-0.4-1.6-0.3h-1.2v-0.7L144.1,160.6z"/>
		<path class="st4" d="M149.6,160.3h2c0.7,0,1.4,0.2,1.9,0.6c0.4,0.4,0.7,0.9,0.7,1.5c0,0.6-0.2,1.1-0.7,1.5
			c-0.5,0.4-1.2,0.6-1.9,0.6h-2.8v-7h0.8L149.6,160.3z M149.6,161v2.9h2c0.5,0,1-0.1,1.4-0.4c0.6-0.5,0.6-1.4,0.1-2c0,0,0,0-0.1-0.1
			c-0.4-0.3-0.9-0.5-1.3-0.4H149.6z"/>
		<path class="st4" d="M164.3,160H160v3.9h4.9v0.7h-5.7v-9.5h5.6v0.7H160v3.6h4.2V160z"/>
		<path class="st4" d="M170.1,160.8h-3.8v-0.7h3.8V160.8z"/>
		<path class="st4" d="M179.1,164.5h-0.8v-8.8h-5.4v8.8h-0.8v-9.5h6.9V164.5z"/>
		<path class="st4" d="M185.8,164.5c0-0.2-0.1-0.5-0.1-0.6c0-0.2,0-0.4,0-0.6c-0.3,0.4-0.6,0.7-1,0.9c-0.5,0.3-1,0.4-1.5,0.4
			c-0.6,0-1.2-0.2-1.6-0.6c-0.4-0.4-0.6-0.9-0.6-1.5c0-0.6,0.3-1.2,0.8-1.5c0.6-0.4,1.4-0.6,2.1-0.6h1.7v-0.9c0-0.4-0.2-0.9-0.5-1.2
			c-0.4-0.3-0.9-0.5-1.4-0.4c-0.5,0-0.9,0.1-1.3,0.4c-0.3,0.2-0.5,0.6-0.5,1h-0.7l0,0c0-0.5,0.2-1.1,0.7-1.4
			c0.5-0.4,1.2-0.6,1.9-0.6c0.7,0,1.3,0.2,1.9,0.6c0.5,0.4,0.7,1.1,0.7,1.7v3.5c0,0.2,0,0.5,0,0.7c0,0.2,0.1,0.5,0.1,0.7
			L185.8,164.5z M183.2,164c0.5,0,1.1-0.1,1.6-0.4c0.4-0.3,0.7-0.6,0.9-1.1v-1.3h-1.7c-0.6,0-1.1,0.1-1.6,0.4
			c-0.4,0.2-0.6,0.6-0.6,1.1c0,0.4,0.1,0.7,0.4,1C182.4,163.9,182.8,164,183.2,164L183.2,164z"/>
		<path class="st4" d="M191.3,157.4c0.8,0,1.7,0.3,2.2,1c0.6,0.7,0.9,1.6,0.8,2.6v0.2c0,0.9-0.3,1.8-0.9,2.6
			c-1.2,1.2-3.1,1.3-4.3,0.2c-0.1-0.1-0.1-0.1-0.2-0.2c-0.6-0.7-0.9-1.6-0.9-2.6V159c-0.1-1,0.2-2,0.9-2.7c0.7-0.7,1.6-1,2.6-1
			c0.5,0,1-0.1,1.4-0.2c0.3-0.1,0.5-0.3,0.5-0.6h0.6l0,0c0.1,0.5-0.2,0.9-0.6,1.1c-0.6,0.3-1.2,0.4-1.9,0.4c-0.8,0-1.5,0.2-2.1,0.7
			c-0.5,0.5-0.8,1.3-0.7,2l0,0c0.2-0.4,0.6-0.8,1-1C190.3,157.4,190.8,157.3,191.3,157.4z M191.2,158c-0.7,0-1.3,0.3-1.7,0.8
			c-0.4,0.6-0.6,1.3-0.6,2v0.2c0,0.7,0.2,1.5,0.6,2.1c0.7,0.9,2.1,1.1,3.1,0.4c0.1-0.1,0.3-0.2,0.4-0.4c0.4-0.6,0.6-1.3,0.6-2.1
			v-0.2c0-0.7-0.2-1.4-0.6-2C192.5,158.3,191.9,158,191.2,158L191.2,158z"/>
		<path class="st4" d="M201.1,157.5v7h-0.8v-6.4h-3v2.4c0.1,1-0.1,2-0.5,3c-0.3,0.6-0.9,1-1.6,0.9h-0.3v-0.7h0.2
			c0.5,0,0.8-0.3,1-0.7c0.3-0.8,0.4-1.7,0.3-2.5v-3.1H201.1z"/>
		<path class="st4" d="M207.7,157.5h0.8v7h-0.8v-5.7l0,0l-3.8,5.7h-0.8v-7h0.8v5.7l0,0L207.7,157.5z"/>
		<path class="st4" d="M211.3,157.5v6.4h3.1v-6.4h0.8v6.4h3.1v-6.4h0.8v7h-8.6v-7H211.3z"/>
	</g>
</g>
</svg>
