<?xml version="1.0" encoding="utf-8"?>
<!-- Generator: Adobe Illustrator 21.1.0, SVG Export Plug-In . SVG Version: 6.00 Build 0)  -->
<svg version="1.1" id="Слой_1" xmlns="http://www.w3.org/2000/svg" xmlns:xlink="http://www.w3.org/1999/xlink" x="0px" y="0px"
	 viewBox="0 0 300 145" style="enable-background:new 0 0 300 145;" xml:space="preserve">
<style type="text/css">
	.st0{fill:none;}
	.st1{fill:#F48120;}
	.st2{fill:#6A7379;}
	.st3{fill:#FFFFFF;}
	.st4{fill:#231F20;}
</style>
<g>
	<g>
		<path class="st0" d="M165.7,106.1c1.3-1.2,2.5-2.4,3.6-3.6c1.1-1.2,2-2.5,2.8-3.7c0.8-1.2,1.4-2.3,1.8-3.4c0.4-1,0.6-2,0.6-2.8
			c0-0.9-0.2-1.5-0.7-1.9c-0.5-0.4-1.3-0.7-2.3-0.7c-1,0-2.1,0.2-3.2,0.7c-1.2,0.5-2.5,1.1-3.7,2c-1.3,0.9-2.6,1.9-3.9,3.2
			c-1.3,1.2-2.6,2.6-3.7,4.1c-0.7,0.9-1.4,2-2.1,3.2c-0.7,1.2-1.4,2.5-2,3.7c-0.6,1.2-1.1,2.5-1.5,3.7c-0.3,0.8-0.5,1.6-0.7,2.3
			c0.9-0.1,1.8-0.2,2.8-0.5c1.4-0.3,2.8-0.8,4.3-1.4c1.4-0.6,2.9-1.3,4.3-2.1C163.3,108.1,164.5,107.1,165.7,106.1z"/>
		<path class="st0" d="M172.3,66.3c-2.2,1.6-4.4,3.3-6.4,4.9c-2,1.6-3.8,3.3-5.5,4.9c-1,0.9-1.8,1.8-2.6,2.5c3.4-0.4,6.9-1,10.3-1.7
			c4.2-0.9,8-2.1,11.5-3.7c4.5-2,8-4.2,10.3-6.5c2.2-2.3,3.4-4.5,3.4-6.7c0-0.7-0.2-1.2-0.6-1.6c-0.4-0.4-1.1-0.6-1.9-0.6
			c-1.7,0-3.5,0.4-5.5,1.1c-2.1,0.8-4.2,1.8-6.4,3.1C176.8,63.3,174.5,64.7,172.3,66.3z"/>
		<path class="st0" d="M183.2,103.8c-4.1,4-4.6,5.5-4.6,6c0,0.1,0,0.1,0,0.1c0,0,0.1,0,0.2,0c0.9,0,2.8-0.7,6.7-4.1
			c4.1-3.5,4.7-5.1,4.7-5.8c0-0.4-0.1-0.6-0.7-0.6C188.9,99.4,187.2,99.9,183.2,103.8z"/>
		<path class="st1" d="M176.7,97.2c0.6-1.3,0.9-2.7,0.9-4.1c0-2-0.7-3.4-2-4.2c-2.4-1.3-5.1-1.3-8-0.2c-1.4,0.5-2.8,1.3-4.3,2.2
			c-1.4,0.9-2.9,2.1-4.3,3.4c-1.4,1.3-2.7,2.7-3.9,4.2c-0.9,1.1-1.7,2.3-2.4,3.6c-0.7,1.3-1.4,2.6-2,3.8c-0.6,1.3-1.2,2.6-1.6,3.9
			c-0.3,1-0.6,2-0.8,3c-1.4-0.2-2.6-0.7-3.6-1.7c-1.1-1-1.7-2.7-1.7-5c0-2.4,0.4-4.7,1.1-6.9c0.8-2.3,1.7-4.5,2.9-6.6
			c1.2-2.1,2.6-4.2,4.1-6.1c1.5-1.9,3-3.7,4.5-5.4c4.4-0.4,8.9-1.1,13.4-2c4.6-1,9-2.4,12.8-4.1c1.8-0.8,3.7-1.8,5.5-2.8
			c1.8-1.1,3.5-2.2,5-3.5c1.5-1.2,2.8-2.5,3.7-3.9c1-1.4,1.5-2.8,1.5-4.2c0-1.4-0.5-2.7-1.6-3.7c-1.1-1-2.5-1.5-4.4-1.5
			c-2.3,0-4.8,0.4-7.4,1.2c-2.6,0.8-5.3,1.9-7.9,3.2c-2.7,1.3-5.4,2.8-8,4.5c-2.6,1.7-5.1,3.4-7.4,5.2c-2.3,1.8-4.5,3.5-6.4,5.2
			c-1.8,1.6-3.3,3.1-4.5,4.3h-2c-5.1,0-10.3-0.5-15.3-1.5c-5-1-9.5-2.7-13.5-4.9c-3.9-2.2-7.1-5.1-9.6-8.7c-2.4-3.5-3.6-7.9-3.6-13
			c0-2.9,0.5-5.7,1.4-8.1c0.9-2.5,2.2-4.7,3.8-6.7c1.6-2,3.6-3.8,5.7-5.3c2.2-1.5,4.6-2.8,7.2-3.9c2.5-1,5.2-1.8,8-2.3
			c2.8-0.5,5.6-0.8,8.4-0.8c3,0,6,0.3,9.1,1c3.1,0.6,5.8,1.7,8.3,3c2.4,1.3,4.4,3,6,5c1.5,2,2.3,4.3,2.3,7c0,2.8-0.7,5.2-2,7.4
			c-1.3,2.2-3.1,4-5.2,5.4c-2.1,1.5-4.5,2.6-7.2,3.4c-2.6,0.8-5.2,1.2-7.8,1.2c-2.5,0-4.6-0.3-6.3-0.8l-5.4-1.8l4.7,3.2
			c0.9,0.6,2,1.1,3.3,1.4c1.2,0.2,2.5,0.4,3.8,0.4c2.7,0,5.6-0.4,8.4-1.2c2.9-0.8,5.5-2.1,7.9-3.7c2.4-1.6,4.4-3.7,5.9-6.1
			c1.6-2.5,2.4-5.3,2.4-8.5c0-3.2-0.9-6-2.6-8.3c-1.7-2.3-3.9-4.2-6.6-5.7c-2.7-1.5-5.8-2.6-9.1-3.3c-3.3-0.7-6.7-1.1-10-1.1
			c-4.4,0-9,0.6-13.6,1.8c-4.6,1.2-8.9,3-12.6,5.4c-3.8,2.4-6.9,5.5-9.3,9.1c-2.4,3.7-3.6,8-3.6,12.9c0,3.6,0.7,6.9,2,9.8
			c1.3,2.9,3.1,5.6,5.4,7.8c2.3,2.3,5,4.2,8,5.9c3,1.6,6.2,3,9.6,4.1c3.4,1.1,6.9,1.9,10.6,2.4c3.6,0.5,7.2,0.8,10.6,0.8h0.4
			c-1.1,1.4-2.2,2.8-3.3,4.3c-1.4,2-2.6,4-3.6,6.1c-1,2.1-1.9,4.3-2.5,6.4c-0.6,2.2-0.9,4.5-0.9,6.6c0,1.9,0.4,3.5,1.1,4.8
			c0.7,1.3,1.7,2.3,2.8,3.1c1.1,0.8,2.3,1.4,3.6,1.8c0.9,0.3,1.9,0.4,2.8,0.5c-0.1,0.9-0.2,1.8-0.2,2.6c-0.1,1.2,0,2.3,0.3,3.5
			c0.1,0.6,0.3,1.6,1.2,1.6c0.2,0,0.4-0.1,0.5-0.2c0.4-0.3,0.6-0.8,0.3-1.2c0,0,0-0.2-0.1-0.6c-0.1-1-0.1-2.1-0.1-3.1
			c0-0.8,0.2-1.7,0.3-2.6c2.8-0.1,5.7-0.7,8.7-2c3.2-1.3,6.1-3,8.8-5.2c1.4-1.1,2.6-2.3,3.8-3.4c1.2-1.2,2.3-2.4,3.2-3.6
			C175.4,99.8,176.1,98.5,176.7,97.2z M153.3,112.4c-1,0.2-1.9,0.4-2.8,0.5c0.2-0.7,0.4-1.5,0.7-2.3c0.4-1.2,0.9-2.5,1.5-3.7
			c0.6-1.2,1.3-2.5,2-3.7c0.7-1.2,1.4-2.3,2.1-3.2c1.1-1.5,2.4-2.9,3.7-4.1c1.3-1.2,2.6-2.3,3.9-3.2c1.3-0.9,2.5-1.5,3.7-2
			c1.2-0.4,2.3-0.7,3.2-0.7c1,0,1.7,0.2,2.3,0.7c0.5,0.4,0.7,1,0.7,1.9c0,0.8-0.2,1.7-0.6,2.8c-0.4,1.1-1,2.2-1.8,3.4
			c-0.8,1.2-1.7,2.4-2.8,3.7c-1.1,1.2-2.3,2.5-3.6,3.6c-1.1,1-2.4,2-3.8,2.8c-1.4,0.8-2.8,1.6-4.3,2.1
			C156.2,111.6,154.8,112.1,153.3,112.4z M190.9,57.8c0.9,0,1.5,0.2,1.9,0.6c0.4,0.4,0.6,0.9,0.6,1.6c0,2.2-1.1,4.4-3.4,6.7
			c-2.3,2.3-5.8,4.5-10.3,6.5c-3.5,1.6-7.4,2.8-11.5,3.7c-3.4,0.7-6.9,1.3-10.3,1.7c0.8-0.8,1.6-1.6,2.6-2.5
			c1.7-1.6,3.5-3.2,5.5-4.9c2-1.6,4.1-3.3,6.4-4.9c2.2-1.6,4.4-3,6.6-4.3c2.2-1.3,4.3-2.3,6.4-3.1C187.4,58.2,189.2,57.8,190.9,57.8
			z"/>
		<path class="st1" d="M213,94.6c0.7,0.4,1.4,0.6,2.1,0.6c1.2,0,2.6-0.5,4.5-1.6c2-1.1,3.1-2.3,3.2-3.4l0-0.4l-0.3-0.3
			c-0.3-0.3-0.5-0.3-0.7-0.3h-0.3l-0.2,0.2c-4.5,3.2-5.9,3.6-6.2,3.6c-0.2,0-0.4,0-0.5-0.1c0.7-0.6,1-1.3,1-2.1
			c0-0.9-0.5-1.9-2.1-1.9c-0.5,0-1.3,0.2-1.8,1.3l-0.1,0.2v2.2C211.6,93.2,211.9,94,213,94.6z"/>
		<path class="st1" d="M266.1,102.7c-0.3,0.2-1.2,0.8-5.1,3.8c-2.3,1.9-3.6,2.5-4.3,2.6c0.3-0.5,0.9-1.7,2.8-4
			c2.9-3.7,3.3-5,3.3-5.8c0-0.8-0.3-2.6-3.3-2.6c-2.1,0-5.7,1.9-10.8,5.9c0.9-1.3,1.3-2.4,1.3-3.2c0-0.8-0.3-2.7-3.4-2.7
			c-2.2,0-6.1,2.2-11.9,6.8c1.7-2.6,2-3.5,2-4.1c0-1.7-1-2.7-2.8-2.7c-1.8,0-3.8,1-6.1,2.9c-3.5,3-4.8,4.2-5.2,4.9
			c-3.7,3.6-5.7,4.6-6.8,4.7c0.1-0.3,0.6-1.6,3.8-5.5c4.2-5,4.2-5.4,4.2-5.8c0-1.2-1.7-1.2-2.5-1.2c-1,0-2,0.4-2.8,1.1
			c-11.5,9.5-14.5,11.2-15.3,11.4c0.2-0.5,0.9-1.8,3.4-5.1c4.4-5.7,4.4-5.8,4.5-6l0.2-0.4l-0.3-0.4c-0.3-0.5-1.1-0.6-1.7-0.6
			c-1.7,0-4.1,1.1-7.4,3.4c-3.4,2.4-4.5,3.6-4.9,4.3c-0.5,0.4-1.1,0.9-1.8,1.6c-2.9,2.5-4.3,3-4.9,3.1c0.2-0.7,1-2.2,3.8-5.7
			c4.3-5.2,4.3-5.3,4.3-5.7c0-1-1.3-1-1.8-1c-1.3,0-2.7,0.7-4.2,2c-0.3-1-1.1-2-3.5-2c-2,0-4.6,0.9-7.8,2.6
			c-3.2,1.7-5.5,3.4-6.9,5.1l-0.1,0.1l-0.1,0.6v0.6l0.2,0.2c0,0,0.1,0.1,0.1,0.1c-0.5,1-0.8,2-0.8,3c0,1.3,0.5,3.5,3.8,3.5
			c2.2,0,4.6-1,7.2-2.9c0,0,0,0.1,0,0.1c0,0.8,0.3,2.8,3.1,2.8c2.1,0,4.5-1.1,7.4-3.4c1.7-1.4,2.9-2.4,3.8-3.2
			c-1,1.5-1.5,2.8-1.5,3.9c0,1,0.4,2.7,3.4,2.7c1.3,0,3.8-0.6,9.9-5.3c-0.5,1-0.8,1.8-0.8,2.6c0,0.8,0.3,2.7,3.3,2.7
			c2,0,4.4-1.1,7.4-3.4c2.9-2.2,4.4-3.6,5.1-4.5c0.5-0.4,1.2-1,2-1.8c1.6-1.4,2.6-2.1,3.3-2.5c-0.6,0.8-1.5,2-3,4
			c-3.5,4.7-4,6.1-4,6.8c0,0.9,0.7,1.3,2.2,1.3c0.6,0,1.6,0,9.5-6.7c5.2-4.4,7.7-5.8,8.8-6.2c-0.5,0.7-1.5,2-3.4,4.3
			c-3.7,4.7-4.2,6.3-4.2,7.2c0,0.6,0.4,1.3,2.1,1.3c0.9,0,2.8-0.8,9.6-6.7c5-4.3,7.5-5.7,8.7-6.1c-0.4,0.6-1.3,1.7-2.9,3.6
			c-2.5,3-3.7,5.1-3.7,6.6c0,0.8,0.3,2.7,3.1,2.7c2.1,0,4.6-1.1,7.7-3.4c5.4-4.1,5.8-5.1,5.8-5.8v-1.4L266.1,102.7z M190.2,100
			c0,0.6-0.6,2.2-4.7,5.8c-3.9,3.4-5.8,4.1-6.7,4.1c-0.1,0-0.2,0-0.2,0c0,0,0-0.1,0-0.1c0-0.5,0.4-2,4.6-6c4-3.8,5.7-4.4,6.4-4.4
			C190.2,99.4,190.2,99.6,190.2,100z"/>
	</g>
	<g>
		<path class="st0" d="M167.8,17.6c1-1,2.1-2,3-3c1-1,1.9-2,2.7-3c0.8-0.9,1.4-1.8,1.9-2.5c0.6-0.9,0.7-1.3,0.7-1.6
			c0-0.3-0.1-0.3-0.2-0.3c-0.6,0-1.3,0.3-2.1,1c-0.9,0.7-1.9,1.6-3,2.7c-1.1,1.1-2.2,2.3-3.3,3.6c-1.1,1.3-2.3,2.6-3.4,3.8
			c-1.2,1.4-2.4,2.7-3.5,4c-1.1,1.3-2.1,2.5-3.1,3.7c-1,1.2-2,2.4-2.9,3.5l-0.2,0.3c1.1-1,2.4-2.1,3.8-3.3
			C161,24,164.3,21,167.8,17.6z"/>
		<path class="st0" d="M207.5,39.2c0,0,0,0-0.1-0.2c-0.1-0.2-0.1-0.3-0.1-0.4l-0.3,0.3c-0.1,0.1-0.2,0.1-0.7,0.4
			c-1.2,0.6-2.7,1.8-4.5,3.6c-1.9,1.9-2.9,3.5-2.9,4.5c0,0.3,0.1,0.4,0.4,0.4c1.4,0,3.1-1.1,5-3.4c0.5-2,1.5-3.4,2.9-4.1
			C207.5,40.2,207.5,39.8,207.5,39.2z"/>
		<path class="st0" d="M186.4,17.6c1-1,2.1-2,3-3c1-1,1.9-2,2.7-3c0.8-0.9,1.4-1.7,1.9-2.5c0.5-0.9,0.7-1.3,0.7-1.6
			c0-0.3-0.1-0.3-0.2-0.3c-0.6,0-1.3,0.3-2.1,1c-0.9,0.7-1.9,1.6-3,2.7c-1.1,1.1-2.2,2.3-3.3,3.6c-1.1,1.3-2.3,2.6-3.4,3.8
			c-1.2,1.4-2.4,2.7-3.5,4c-1.1,1.3-2.1,2.5-3.1,3.7c-1,1.2-2,2.4-2.9,3.5l-0.2,0.3c1.1-1,2.4-2.1,3.8-3.3
			C179.6,24,182.8,21,186.4,17.6z"/>
		<path class="st0" d="M257,43.6c0-0.1,0.1-0.1,0.1-0.2c0,0,0,0,0,0C257,43.5,257,43.6,257,43.6z"/>
		<path class="st2" d="M179,37.4c0-1-0.3-1.8-0.9-2.2c-0.6-0.4-1.3-0.7-2.3-0.7c-0.7,0-1.4,0.2-2.2,0.5c-0.7,0.3-1.4,0.7-2.1,1.2
			c-0.7,0.5-1.3,1.1-1.8,1.7c-0.6,0.6-1,1.3-1.4,1.9c-0.2,0.3-0.3,0.5-0.4,0.8c-0.2,0.4-0.1,0.8,0.1,0.9c0.1,0.1,0.2,0.1,0.3,0.1
			c0.2,0,0.4-0.1,0.5-0.4c0-0.1,0.2-0.3,0.5-0.9c0.3-0.6,0.8-1.1,1.3-1.6c0.5-0.5,1.1-1,1.7-1.5c0.6-0.4,1.2-0.8,1.8-1
			c0.6-0.3,1.2-0.4,1.7-0.4c0.5,0,0.8,0.1,1,0.4c0.2,0.3,0.4,0.7,0.4,1.1c0,1.1-0.4,2.3-1.1,3.6c-0.7,1.3-1.7,2.4-2.8,3.5
			c-1.4,1.3-3,2.4-4.6,3.3c-1.6,0.9-3.1,1.3-4.6,1.3c-0.7,0-1.2-0.2-1.4-0.5c-0.3-0.4-0.4-0.8-0.4-1.5c0-0.9,0.3-1.9,0.8-3
			c0.6-1.2,1.3-2.3,2.1-3.5c0.8-1.2,1.6-2.3,2.5-3.4c0.8-1.1,1.5-1.9,2-2.6c1.4-1.2,2.8-2.3,4.1-3.5c1.3-1.1,2.7-2.3,4.1-3.5
			c1.4-1.2,2.9-2.6,4.5-4c1.6-1.4,3.3-3.1,5.3-4.9l3-2.9c1-1,2-2,2.8-2.9c0.8-0.9,1.6-1.9,2.1-2.7c0.6-0.9,0.9-1.7,0.9-2.4
			c0-0.5-0.2-0.9-0.5-1.1c-0.3-0.3-0.7-0.4-1.2-0.4c-1.2,0-2.6,0.6-4.4,1.7c-1.6,1.1-3.4,2.5-5.4,4.3c-1.9,1.8-4,3.8-6.1,6.1
			c-2.1,2.3-4.2,4.6-6.3,7.1c-1.2,1.4-2.4,2.8-3.6,4.2c-1.2,1.4-2.4,2.8-3.5,4.2c-1.1,1.3-2,2.6-2.9,3.7c-0.9,1.1-1.5,2-1.9,2.7
			c-0.9,0.8-2,1.7-3.3,2.7c-1.3,1-2.7,2-4.1,2.9c-1.4,0.9-2.8,1.7-4.2,2.3c-1.4,0.6-2.6,0.9-3.6,0.9c-0.7,0-1.3-0.2-1.9-0.5
			c-0.5-0.3-0.7-0.8-0.7-1.6c0-0.7,0.2-1.5,0.7-2.5c0.5-1,1.1-2,1.9-3.1c0.8-1.1,1.6-2.2,2.6-3.3c1-1.1,2-2.3,3-3.3
			c1.4-1.2,2.8-2.4,4.1-3.5c1.3-1.1,2.7-2.3,4.1-3.5c1.4-1.2,2.9-2.6,4.5-4c1.6-1.4,3.3-3.1,5.3-4.9l3-2.9c1-1,2-2,2.8-2.9
			c0.8-0.9,1.6-1.9,2.1-2.7c0.6-0.9,0.9-1.7,0.9-2.4c0-0.5-0.2-0.9-0.5-1.1c-0.3-0.3-0.7-0.4-1.2-0.4c-1.2,0-2.6,0.6-4.4,1.7
			c-1.6,1.1-3.4,2.5-5.4,4.3c-1.9,1.8-4,3.8-6.1,6.1c-2.1,2.3-4.2,4.6-6.3,7c-1.2,1.3-2.3,2.6-3.5,3.9c-1.2,1.3-2.3,2.6-3.4,3.9
			c-1.1,1.3-2.1,2.5-3,3.8c-0.9,1.2-1.7,2.4-2.4,3.4c-0.9,0.8-2,1.7-3.3,2.7c-1.3,1-2.7,2-4.1,2.9c-1.4,0.9-2.8,1.6-4.2,2.2
			c-1.3,0.6-2.5,0.9-3.5,0.9c-0.7,0-1.3-0.2-1.9-0.5c-0.5-0.3-0.7-0.8-0.7-1.6c0-1,0.4-2.2,1.2-3.5c0.8-1.4,1.9-2.8,3.1-4.3
			c1.2-1.5,2.6-3.1,4-4.6c1.4-1.5,2.8-3,4-4.3c1.4-1.5,2.7-3,3.9-4.4c1.2-1.4,2.2-2.8,3.1-4.1c0.9-1.3,1.6-2.7,2.1-4
			c0.5-1.3,0.8-2.8,0.8-4.3c0-2-0.5-3.7-1.4-5.2c-0.9-1.4-2.1-2.7-3.6-3.6c-1.5-1-3.2-1.7-5-2.1c-3.8-0.9-7.7-0.9-11.5-0.1
			c-1.9,0.4-3.8,0.9-5.5,1.5c-1.7,0.6-3.4,1.3-4.9,2.1c-1.5,0.8-2.8,1.5-3.9,2.3c-1.9,1.3-3.6,2.7-5.1,4.1c-1.5,1.4-2.9,2.9-4,4.5
			c-1.1,1.6-2,3.2-2.6,4.9c-0.6,1.7-1,3.4-1,5.2c0,3.1,1,5.5,3,7.2c2,1.7,4.7,2.6,8.1,2.6c2.2,0,4.6-0.5,7.1-1.4
			c2.6-0.9,5-2.4,7.2-4.3c1.8-1.6,3.4-3.4,4.7-5.3c1.3-1.9,2-3.9,2-5.9c0-1.8-0.6-3.2-1.9-4.1c-1.2-0.9-2.7-1.3-4.3-1.3
			c-1.8,0-3.5,0.4-5,1.1c-1.5,0.7-2.6,1.5-3.4,2.3c-0.2,0.2-0.4,0.4-0.6,0.7c-0.3,0.4-0.4,0.8-0.1,1c0.1,0.1,0.2,0.2,0.4,0.2
			c0.1,0,0.4-0.1,0.5-0.4c0,0,0.1-0.2,0.7-0.7c0.7-0.7,1.8-1.4,3.1-2c1.3-0.6,2.8-0.9,4.4-0.9c1.3,0,2.4,0.3,3.2,1
			c0.8,0.7,1.1,1.6,1.1,2.9c0,1.8-0.5,3.5-1.6,5.1c-1.1,1.7-2.5,3.3-4.2,4.9c-2.3,2.1-4.6,3.6-6.9,4.5c-2.3,0.9-4.5,1.3-6.3,1.3
			c-3,0-5.4-0.8-7-2.3c-1.6-1.5-2.4-3.6-2.4-6.1c0-1.7,0.3-3.4,0.9-5c0.6-1.6,1.4-3.2,2.4-4.6c1-1.5,2.3-2.9,3.8-4.2
			c1.5-1.3,3.1-2.6,4.9-3.9c1-0.7,2.2-1.4,3.7-2.1c1.5-0.7,3.1-1.4,4.8-2c1.7-0.6,3.5-1.1,5.4-1.4c1.8-0.4,3.7-0.6,5.4-0.6
			c1.4,0,2.9,0.2,4.4,0.5c1.5,0.3,2.8,0.8,4,1.5c1.2,0.7,2.1,1.6,2.9,2.6c0.7,1.1,1.1,2.4,1.1,3.9c0,1.5-0.3,3-1,4.5
			c-0.7,1.6-1.6,3.1-2.6,4.6c-1.1,1.5-2.2,3-3.5,4.4c-1.3,1.4-2.5,2.8-3.6,3.9c-1.7,1.9-3.3,3.6-4.6,5.1c-1.3,1.5-2.5,2.9-3.4,4.2
			c-0.9,1.3-1.6,2.5-2.1,3.7c-0.5,1.2-0.7,2.3-0.7,3.5c0,1.6,0.5,2.9,1.6,3.6c1.9,1.4,4.3,1.5,7.3,0.3c1.3-0.5,2.7-1.2,4-2
			c1.3-0.8,2.7-1.7,3.9-2.6c0.7-0.5,1.4-1,2-1.5c-0.3,0.8-0.4,1.5-0.4,2.2c0,0.8,0.2,1.6,0.5,2.2c0.3,0.6,0.8,1.1,1.3,1.5
			c0.5,0.4,1.1,0.7,1.8,0.8c0.7,0.2,1.3,0.3,2,0.3c1.2,0,2.5-0.3,4-0.9c1.4-0.6,2.8-1.3,4.2-2.2c1.4-0.9,2.7-1.8,4-2.8
			c0.6-0.5,1.2-0.9,1.7-1.3c0,0.1-0.1,0.2-0.1,0.3c-0.3,0.8-0.4,1.6-0.4,2.3c0,1.8,0.5,3.1,1.6,3.8c1,0.7,2.2,1,3.6,1h0.1
			c1.8,0,3.5-0.5,5.3-1.4c1.7-0.9,3.4-2.2,5-3.6c1.4-1.3,2.5-2.6,3.4-3.9C178.5,40,179,38.7,179,37.4z M173.2,29.5
			c0.9-1.2,1.9-2.4,2.9-3.5c1-1.2,2-2.4,3.1-3.7c1.1-1.3,2.2-2.6,3.5-4c1.1-1.2,2.2-2.5,3.4-3.8c1.1-1.3,2.3-2.5,3.3-3.6
			c1.1-1.1,2.1-2,3-2.7c0.9-0.6,1.6-1,2.1-1c0.2,0,0.2,0,0.2,0.3c0,0.2-0.1,0.7-0.7,1.6c-0.5,0.7-1.1,1.6-1.9,2.5
			c-0.8,0.9-1.7,1.9-2.7,3c-1,1-2,2.1-3,3c-3.6,3.4-6.8,6.4-9.7,8.9c-1.4,1.2-2.6,2.3-3.8,3.3L173.2,29.5z M154.6,29.6
			c0.9-1.2,1.9-2.4,2.9-3.5c1-1.2,2-2.4,3.1-3.7c1.1-1.3,2.2-2.6,3.5-4c1.1-1.2,2.2-2.5,3.4-3.8c1.1-1.3,2.3-2.5,3.3-3.6
			c1.1-1.1,2.1-2,3-2.7c0.9-0.6,1.6-1,2.1-1c0.2,0,0.2,0,0.2,0.3c0,0.2-0.1,0.7-0.7,1.6c-0.5,0.7-1.1,1.6-1.9,2.5
			c-0.8,0.9-1.7,1.9-2.7,3c-1,1-2,2.1-3,3c-3.6,3.4-6.8,6.4-9.7,8.9c-1.4,1.2-2.6,2.3-3.8,3.3L154.6,29.6z"/>
		<path class="st2" d="M191.5,39.4c0.4,0,0.5,0.1,0.5,0.4c0,0,0,0.2-0.2,0.5c-0.2,0.4-0.2,0.6-0.2,0.7c0,0.7,0.6,1,1.7,1
			c1.4,0,2.2-0.8,2.2-2.1c0-0.9-0.5-2-2.8-2c-1.8,0-3.9,0.9-6.4,2.8c-0.6,0.5-1.6,1.3-2.9,2.4c1.1-1.6,2.1-2.8,2.7-3.8l0.1-0.1V39
			c0-0.3-0.1-1.1-1.5-1.1c-0.4,0-1.2,0.3-3.8,2.4c-2.6,2.1-3,2.8-3.1,3.1l0,0.1c0,0.2,0.2,0.5,0.5,0.5c0.1,0,0.2,0,0.3-0.1
			c-1.9,2.7-2.2,3.8-2.2,4.4v0.4l0.2,0.1c0.2,0.2,0.6,0.3,1.2,0.3c0.6,0,2-0.6,6.6-5C188.6,40.2,190.6,39.4,191.5,39.4z"/>
		<path class="st2" d="M212.4,42.7c0-0.1,0-0.3-0.2-0.4l-0.2-0.2l-0.2,0c-0.3,0.1-0.8,0.3-2.6,1.8c-0.8,0.6-1.5,1-2.1,1.2
			c1.8-1.9,2.7-3.4,2.7-4.8c0-0.5-0.1-1-0.4-1.5c-0.3-0.6-0.7-1-1.3-1c-0.5,0-0.7,0.3-0.7,0.6l-0.7-0.6l-0.2,0
			c-1.6,0-3.6,0.7-5.9,1.9c-2.1,1.1-3.8,2.4-5,3.7l0,0c-0.4,0.3-0.9,0.7-1.4,1.2c-2.2,1.9-3.3,2.3-3.8,2.3c0,0-0.4,0-0.7-1.6
			c-0.4-1.9-1.5-2.3-2.3-2.3c-0.9,0-1.6,0.2-2,0.6l-1.6,1.4l2-0.7c0.1,0,0.1,0,0.1,0c0.1,0,0.3,0.3,0.3,1.5c0,1,0.1,1.7,0.3,2.2
			c0.3,0.5,0.8,1.2,2.1,1.2c1.4,0,3.1-0.8,5.2-2.4c0.5-0.4,1.3-1,2.2-1.9c0,0,0,0,0.1,0c-0.2,0.6-0.3,1.2-0.3,1.9
			c0,1.2,0.6,2.6,3.3,2.6c1.8,0,4-0.9,6.7-2.8c0.2,0.1,0.6,0.1,1,0.1c0.7,0,1.7-0.5,3.3-1.5C212.1,43.7,212.4,43.1,212.4,42.7z
			 M204.5,44.5c-2,2.2-3.7,3.4-5,3.4c-0.3,0-0.4-0.1-0.4-0.4c0-1.1,1-2.6,2.9-4.5c1.7-1.8,3.3-3,4.5-3.6c0.6-0.3,0.7-0.4,0.7-0.4
			l0.3-0.3c0,0.1,0.1,0.2,0.1,0.4c0.1,0.1,0.1,0.2,0.1,0.2c0,0.6,0,1-0.1,1.2C206,41.1,205,42.4,204.5,44.5z"/>
		<path class="st2" d="M285.2,35.9c0.5,0.3,1,0.4,1.4,0.4c0.8,0,1.9-0.4,3.2-1.1c1.4-0.8,2.1-1.6,2.2-2.4l0-0.2l-0.1-0.1
			c-0.1-0.1-0.3-0.2-0.4-0.2h-0.1l-0.1,0.1c-3.2,2.3-4.3,2.7-4.7,2.7c-0.4,0-0.6-0.1-0.7-0.2c0.6-0.4,0.9-0.9,0.9-1.5
			c0-0.4-0.1-1.2-1.3-1.2c-0.4,0-0.9,0.1-1.2,0.9l0,0.1v1.5C284.4,35,284.5,35.5,285.2,35.9z"/>
		<path class="st2" d="M298.4,40.8c-0.2-0.1-0.4-0.2-0.6-0.3c0,0-0.1,0-0.1,0c0,0,0,0-0.1,0h0c-0.4,0-0.7,0-1.1,0c0,0-0.1,0-0.1,0
			c-1.3,0.3-2.4,1.3-3.4,2.3c0,0,0,0.1,0,0.1c0,0,0,0,0,0c-3.4,3.4-5.1,4.1-5.9,4.1c0,0,0,0,0,0c0,0,0-0.1,0-0.1
			c0-0.2,0.3-1.1,2.8-4.2c3-3.6,3-3.9,3-4.1c0-0.7-1.1-0.7-1.6-0.7c-0.7,0-1.4,0.3-1.9,0.7c-8.8,7.3-10.9,8.3-11.4,8.3
			c0-0.1-0.1-0.1-0.1-0.1c0.1-0.3,0.5-1.3,2.5-3.9c3.2-4.2,3.2-4.2,3.2-4.3l0.1-0.2l-0.1-0.2c-0.2-0.3-0.5-0.4-1.1-0.4
			c-1.2,0-2.9,0.8-5.3,2.5c-1.9,1.3-2.8,2.1-3.2,2.7c-0.4,0.4-1.1,0.9-2,1.7c-2.1,1.9-2.8,2.2-3,2.2c0,0-0.1-0.1-0.1-0.2
			c0.1-0.4,0.5-1.3,2.5-3.9c2.8-3.5,3.3-4.2,3.3-4.3l0.2-0.4l-0.4-0.2c-0.2-0.1-0.5-0.1-0.8-0.1c-1.5,0-3.5,1.4-5.9,4.3
			c-1.7,2.1-3,3.1-3.9,3.6c0.8-0.9,1.2-1.6,1.2-2.2c0-1.5-0.9-1.6-1.3-1.6c-0.2,0-0.4,0.1-0.5,0.2l-0.2,0.2v1.1
			c-1,0.4-1.6,1.1-1.9,2.3c-1.2,1.1-1.7,1.2-1.9,1.2c-0.1,0-0.1,0-0.1,0c0-0.1-0.1-0.1-0.1-0.2c0.1-0.3,0.5-1.3,2.5-3.8
			c1.1-1.4,2.2-2.9,3.3-4.3l0.2-0.2l-0.2-0.2c-0.2-0.3-0.5-0.4-1.4-0.4c-0.6,0-1.4,0.3-2.4,1.1l-0.3,0.2l-0.1,0.1
			c-0.3,0.2-0.5,0.4-0.7,0.6c-1.9,1.3-3.1,2.2-3.9,2.8h0l-0.1,0.1c0,0,0,0-0.1,0.1c-0.9,0.7-1.1,0.9-1.2,1.1c-3.1,2.9-4,3.2-4.2,3.2
			c0,0,0,0-0.1-0.1c0,0-0.1-0.1-0.1-0.3c0-0.2,0.3-1,2.6-3.9c2.7-3.4,2.7-3.5,2.7-3.7c0-0.8-1.1-0.8-1.6-0.8c-1,0-2,0.6-3.2,1.8
			c-2.2,2.2-2.8,2.9-3,3l0,0c-1.2,1-2.6,1.5-4,1.5c-0.3,0-0.3,0-0.3-0.1c0,0,0.1-0.1,0.2-0.2c0.2-0.3,0.4-0.6,0.4-0.9
			c0-0.2-0.1-0.5-0.3-0.8c2.6-3.4,2.6-3.5,2.6-3.7c0-0.7-1-0.7-1.5-0.7c-0.9,0-2.3,0.5-4.1,1.7c-1.5,0.9-2.5,1.8-3.1,2.5
			c-0.3,0.2-0.9,0.7-1.8,1.4c0-0.1,0-0.1,0-0.2c0-1.5-0.9-1.6-1.3-1.6c-0.1,0-0.3,0-0.4,0.2l-0.2,0.2v1.1c-1,0.4-1.6,1.1-1.9,2.3
			c-1.2,1-1.7,1.2-1.9,1.2c-0.1,0-0.1,0-0.2-0.1c0,0-0.1-0.1-0.1-0.1c0.1-0.3,0.4-1.2,2.5-3.8c1.1-1.4,2.2-2.8,3.3-4.2l0.2-0.3
			l-0.3-0.3c-0.2-0.2-0.6-0.3-1.3-0.3c-0.8,0-1.7,0.4-2.7,1.2c-0.3,0.2-0.5,0.4-0.7,0.6c-4.1,2.9-5,3.6-5.2,3.9
			c-0.4,0.3-0.8,0.7-1.3,1.1c-2,1.7-2.8,2.1-3.2,2.1c0,0,0-0.1-0.1-0.2c0-0.3,0.4-1.3,2.9-4.2c3.1-3.7,3.1-3.7,3.1-3.9
			c0-0.1-0.1-0.6-0.9-0.6c-1,0-1.7,0.1-2.1,0.4c-1.9,1.6-3.7,3.2-5.5,4.8c-3.9,3.3-5,3.7-5.3,3.7c0,0,0,0,0,0c0-0.1,0-0.1,0-0.1
			c0-0.1,0-0.3,0.1-0.5c0.1-0.3,0.1-0.5,0.1-0.7c0-0.3-0.1-1-1.4-1c-1.2,0-2,0.5-2.4,1.5h-0.1l-0.1,0.3c0,0.3-0.1,0.5-0.1,0.8
			c0,0.7,0.3,1.7,2.1,1.7c1.3,0,2.8-0.7,4.6-2c0.4-0.3,0.9-0.7,1.7-1.4c-0.3,0.6-0.5,1.1-0.5,1.5c0,1.2,0.7,1.9,2,1.9
			c1.4,0,3.1-0.8,5.1-2.4c1.1-0.8,1.9-1.5,2.5-2c0,0-0.1,0.1-0.1,0.1c-0.9,1.7-1,2.3-1,2.6c0,0.7,0.3,1.8,2.4,1.8
			c1,0,2.3-0.5,4.2-1.5l0.5-0.1l0.1,0c1.7-1.2,3-2.1,3.9-2.7c0.8-0.7,1.3-1.1,1.6-1.4c0.2-0.1,0.4-0.2,0.7-0.4
			c-0.2,0.3-0.5,0.6-0.7,0.9c-2.4,2.9-2.7,3.8-2.7,4.3c0,0.9,1.3,0.9,1.7,0.9c0.7,0,1.4-0.2,2.1-0.5l0.1,0l0.1-0.1
			c1-1.3,1.8-2.4,2.4-3.2c0.5,0.5,1.2,0.7,2.1,0.7c0.9,0,1.8-0.2,2.7-0.6c-0.3,0.6-0.4,1.2-0.4,1.7c0,0.8,0.3,2.1,2.4,2.1
			c1.1,0,2.4-0.5,4.1-1.6c1.2-0.8,2.2-1.7,3-2.6c-0.6,1-0.8,1.8-0.8,2.4c0,0.7,0.3,1.8,2.3,1.8c1,0,2.6-0.6,4.8-1.8h0.5
			c0.6,0,1.3-0.3,2.1-0.8c-0.1,0.3-0.1,0.6-0.1,0.8c0,0.7,0.3,1.7,2.1,1.7c1.2,0,2.6-0.6,4.3-1.8c1.3-0.9,2.4-1.9,3.3-3
			c0.1,0,0.2-0.1,0.3-0.2l0,0c0.4-0.3,0.7-0.6,1-0.8c-1.3,1.7-2,3-2,4c0,0.7,0.3,1.8,2.3,1.8c1.5,0,4.1-1.5,7.9-4.4
			c-0.7,1-1,1.9-1,2.6c0,0.7,0.3,1.8,2.2,1.8c1.4,0,3.1-0.8,5.2-2.4c3-2.3,3.8-3.3,4-3.8c0,0,0,0,0,0c0.3-0.3,0.7-0.6,1.1-0.8
			c0.1-0.1,0.3-0.2,0.5-0.2c0.4-0.1,0.7,0,0.9,0.3c0.2,0.1,0.3,0.3,0.3,0.5c0.1,0.6,0,1.2-0.4,1.7c-0.2,0.2-0.3,0.4-0.5,0.7
			c0,0.3-0.1,0.6-0.3,0.8c-0.1,0.1-0.2,0.3-0.3,0.4c0,0,0,0.1,0,0.1c-0.1,0.3-0.2,0.6-0.2,0.9c0,0,0,0,0,0c0.2,0.4,0.4,0.8,0.8,1.2
			c-0.1-1.2,0.8-2.4,1.4-3.3c0.3-0.5,0.7-1,0.9-1.3C299.4,42.8,299.2,41.6,298.4,40.8z M257,43.6c0,0,0-0.1,0.1-0.1c0,0,0,0,0,0
			C257.1,43.5,257,43.6,257,43.6z"/>
	</g>
	<g>
		<polygon class="st1" points="94.4,105 106.4,95.1 112.9,79 95.9,82.9 86.5,90.9 		"/>
		<ellipse class="st2" cx="39.8" cy="27.9" rx="20.2" ry="23.3"/>
		<ellipse class="st3" cx="46.8" cy="30" rx="13.1" ry="17.9"/>
		<ellipse class="st2" cx="73" cy="26.6" rx="11.4" ry="13.9"/>
		<ellipse class="st3" cx="70.4" cy="31.8" rx="7.2" ry="8.7"/>
		<ellipse class="st4" cx="65.6" cy="44.6" rx="1.7" ry="2.4"/>
		<ellipse class="st4" cx="61.6" cy="45.3" rx="1.7" ry="2.4"/>
		<ellipse transform="matrix(0.2645 -0.9644 0.9644 0.2645 14.4042 92.4505)" class="st4" cx="67.8" cy="36.8" rx="0.9" ry="2.8"/>
		<ellipse transform="matrix(0.9526 -0.3042 0.3042 0.9526 -8.562 19.1778)" class="st4" cx="57.3" cy="37.1" rx="2.8" ry="0.9"/>
		<g>
			<path class="st2" d="M28.3,93.9c-4.2-1.7-9.2-1.7-13.6-1.2c-3.9,0.4-7.4,1.6-9.6,5.1c-1.5,2.4-1.9,5.6-0.6,8.1
				c1.5,3.1,5.6,2.5,8.3,1.5c7-2.7,9.5-11.4,10.8-18.1c1.4-7.6,1.6-15.6,1.3-23.3c-0.1-2.4-0.4-4.8-1.5-7c-0.8-1.6,2.4-1.7,3-0.4
				c2,4.4,1.7,9.3,1.7,14.1c0,3.6-0.2,7.2-0.5,10.8c-0.7,7.3-2.1,15.4-6.8,21.3c-3.8,4.9-12.1,8.2-17.5,3.7c-4.8-4-2.6-11.4,1.5-15
				c3.1-2.8,7.8-3.2,11.8-3.4c4.4-0.2,9.1,0.1,13.2,1.8C31.7,92.8,29.9,94.6,28.3,93.9L28.3,93.9z"/>
		</g>
		<g>
			<path class="st2" d="M82.6,44.1c-1.4,3.7-3.8,6-7.9,6.3c-1.7,0.1-3.5,0-5.3,0c-2.7,0.1-5.2,0.9-7.5,2.1c-4.7,2.5-8.6,6.8-12,10.7
				c-3.6,4.1-6.7,8.6-9.4,13.3c-4.2,7.3-7.5,15.2-10,23.2c-2.1,6.7-3.6,13.9-2.9,21c0.6,6.6,3.5,12.5,9.2,16
				c6.7,4.2,15.8,4.5,23.5,4.5c7.6,0,15.5-1.2,22-5.3c7.1-4.4,10.9-12.3,11.6-20.5c0.5-6.1-0.9-11.9-3.6-17.4
				c-2.8-5.9-6.6-11.2-9.3-17.2c-1.5-3.2-2.6-6.5-3.7-9.9c-0.8-2.3-1.3-4.5-1.1-6.9c0.2-2.4,1.4-5.3,2.5-7.4
				c1.8-3.3,3.7-6.7,1.7-10.4c-0.8-1.5,2.3-1.4,2.9-0.3c2.9,5.3-1,9.9-2.9,14.7c-0.7,1.8-1.3,3.6-1.2,5.5c0.1,2.7,1.3,5.3,2.2,7.9
				c1.9,5.4,4.4,10.5,7.3,15.4c2.6,4.4,5.2,8.8,6.8,13.6c2.9,8.6,2,18.5-2.7,26.4c-3.7,6.3-10.3,10.2-17.2,12.1
				c-7.5,2.1-15.5,2.1-23.1,1.3c-7.6-0.7-15.3-2.3-21.2-7.6c-10.4-9.4-7.2-26.1-3.5-37.8C31.8,85,38,72.6,46.6,62.4
				c4.7-5.5,10.5-11.6,17.7-13.6c2.8-0.8,5.6-0.5,8.5-0.5c3.5,0,5.5-1.8,6.7-5C80,41.9,83.1,42.8,82.6,44.1L82.6,44.1z"/>
		</g>
		<g>
			<path class="st4" d="M75.9,67c-2.1,8.4-15.9,3.2-20.2-0.3c-1.3-1,1.8-0.7,2.4-0.2c3.6,2.9,13,6.4,14.7-0.3
				C73,65.4,76.1,66.2,75.9,67L75.9,67z"/>
		</g>
		<path class="st2" d="M31,95.5c0,0.3,0,0.5,0,0.8c-0.2,0.2-0.5,0.5-0.6,0.8c-3,5.2-4.6,11.2-4.7,17.4c-0.2-6.8,1.4-13.7,4.7-19.4
			c0.2-0.3,0.4-0.6,0.6-0.8C31,94.7,31,95.1,31,95.5z"/>
		<path class="st2" d="M65.7,86.8v12.4c0,3.7-8.3,3.7-8.3,0V86.8C57.4,83,65.7,83,65.7,86.8z"/>
		<path class="st1" d="M61.4,109.1c0.7,0,1.2,0.5,1.2,1.1v30.1c0,0.6-0.5,1.1-1.2,1.1c-0.7,0-1.2-0.5-1.2-1.1v-30.1
			C60.2,109.5,60.7,109.1,61.4,109.1z"/>
		<polygon class="st3" points="104.8,81.4 97.9,84.1 104.7,92.7 109,86.7 		"/>
		<ellipse transform="matrix(0.1521 -0.9884 0.9884 0.1521 27.0999 117.6647)" class="st4" cx="82.1" cy="43" rx="4.1" ry="3.7"/>
		<path class="st2" d="M31.3,90.3c0.3-0.6,0.3-0.7,0.7-1.1c0.1-0.1,0.6-0.5,0.5-0.5c0.3-0.1,0.5-0.3,0.8-0.4
			c0.2-0.5,0.4-0.9,0.8-1.3c0.9-1.1,1.9-1.9,3.1-2.5c6.2-4.8,14.2-4.9,21.8-4.8c8,0.1,17.5-0.3,24.2,4.7c0.4,0.3,0.7,0.6,0.9,0.9
			c-0.1,0.6,0.2,1.1,0.1,1.7c-0.2-0.2-0.8-0.4-1-0.5C76.5,81.5,67,81.9,59,81.8c-7.6-0.1-15.6-0.1-21.8,4.8C36,87.2,35,88,34.1,89.1
			c-0.3,0.4-0.6,0.9-0.8,1.3c-0.3,0.1-0.5,0.3-0.8,0.4c0.1-0.1-0.4,0.3-0.5,0.5c-0.4,0.3-0.4,0.5-0.7,1.1c-0.2,0.3-0.3,0.7-0.3,1.2
			C30.9,92.2,31,91,31.3,90.3z"/>
	</g>
</g>
</svg>
